HIERARCHY
ROOT Hips
{
	OFFSET 0.000000 0.000000 0.000000
	CHANNELS 6 Xposition Yposition Zposition Zrotation Yrotation Xrotation 
	JOINT LowerBack
	{
		OFFSET 0.000000 0.000000 0.000000
		CHANNELS 3 Zrotation Yrotation Xrotation
		JOINT Spine
		{
			OFFSET 0.028270 2.035590 -0.193380
			CHANNELS 3 Zrotation Yrotation Xrotation
			JOINT Spine1
			{
				OFFSET 0.056720 2.048850 -0.042750
				CHANNELS 3 Zrotation Yrotation Xrotation
				JOINT Neck
				{
					OFFSET 0.000000 0.000000 0.000000
					CHANNELS 3 Zrotation Yrotation Xrotation
					JOINT Neck1
					{
						OFFSET -0.054170 1.746240 0.172020
						CHANNELS 3 Zrotation Yrotation Xrotation
						JOINT Head
						{
							OFFSET 0.104070 1.761360 -0.123970
							CHANNELS 3 Zrotation Yrotation Xrotation
							End Site
							{
								OFFSET 0.000000 0.000000 0.000000
							}
						}
					}
				}
				JOINT LeftShoulder
				{
					OFFSET 0.000000 0.000000 0.000000
					CHANNELS 3 Zrotation Yrotation Xrotation
					JOINT LeftArm
					{
						OFFSET 3.362410 1.200890 -0.311210
						CHANNELS 3 Zrotation Yrotation Xrotation
						JOINT LeftForeArm
						{
							OFFSET 4.983000 -0.000000 -0.000000
							CHANNELS 3 Zrotation Yrotation Xrotation
							JOINT LeftHand
							{
								OFFSET 3.483560 -0.000000 -0.000000
								CHANNELS 3 Zrotation Yrotation Xrotation
								JOINT LeftFingerBase
								{
									OFFSET 0.000000 0.000000 0.000000
									CHANNELS 3 Zrotation Yrotation Xrotation
									JOINT LeftHandIndex1
									{
										OFFSET 0.715260 -0.000000 -0.000000
										CHANNELS 3 Zrotation Yrotation Xrotation
										End Site
										{
											OFFSET 0.000000 0.000000 0.000000
										}
									}
								}
								JOINT LThumb
								{
									OFFSET 0.000000 0.000000 0.000000
									CHANNELS 3 Zrotation Yrotation Xrotation
									End Site
									{
										OFFSET 0.000000 0.000000 0.000000
									}
								}
							}
						}
					}
				}
				JOINT RightShoulder
				{
					OFFSET 0.000000 0.000000 0.000000
					CHANNELS 3 Zrotation Yrotation Xrotation
					JOINT RightArm
					{
						OFFSET -3.136600 1.374050 -0.404650
						CHANNELS 3 Zrotation Yrotation Xrotation
						JOINT RightForeArm
						{
							OFFSET -5.241900 -0.000000 -0.000000
							CHANNELS 3 Zrotation Yrotation Xrotation
							JOINT RightHand
							{
								OFFSET -3.444170 -0.000000 -0.000000
								CHANNELS 3 Zrotation Yrotation Xrotation
								JOINT RightFingerBase
								{
									OFFSET 0.000000 0.000000 0.000000
									CHANNELS 3 Zrotation Yrotation Xrotation
									JOINT RightHandIndex1
									{
										OFFSET -0.622530 -0.000000 -0.000000
										CHANNELS 3 Zrotation Yrotation Xrotation
										End Site
										{
											OFFSET 0.000000 0.000000 0.000000
										}
									}
								}
								JOINT RThumb
								{
									OFFSET 0.000000 0.000000 0.000000
									CHANNELS 3 Zrotation Yrotation Xrotation
									End Site
									{
										OFFSET 0.000000 0.000000 0.000000
									}
								}
							}
						}
					}
				}
			}
		}
	}
}
}
MOTION
Frames: 12
Frame Time: 0.008333
4.946377 16.261522 -2.345721 -147.670940 75.993029 -129.090953 4.388542 -0.369129 -3.575992 1.356858 -0.665425 -3.748112 -0.039203 -0.705314 -1.411656 -2.096235 -6.805103 -6.413141 1.487898 0.088792 0.355039 0.000000 0.000000 0.000000 8.609827 1.613872 -0.573919 -7.681791 -39.327931 -62.001302 3.051788 -40.457299 -0.334164 27.761779 -2.074731 -0.713345 -0.527201 0.756066 0.000000 0.000000 0.000000 0.000000 0.000000 0.000000 0.000000 -17.069894 -2.734446 3.309503 -78.723153 72.866219 -111.081847 -0.564725 14.941573 0.020252 2.329791 9.927909 0.215931 -0.016644 -0.586358 -0.000000 0.000000 0.000000 0.000000 0.000000 0.000000 0.000000 
5.151665 16.345706 -2.479857 -148.122477 75.574374 -129.344664 5.178255 -0.637177 -3.176229 1.489479 -0.981907 -3.845508 -0.185710 -0.981764 -2.158441 -2.119463 -6.849115 -6.671241 1.539729 0.097973 0.282054 0.000000 0.000000 0.000000 8.661542 1.657898 -0.162707 -8.392059 -38.715222 -59.600332 2.815091 -38.458160 -0.319896 27.403054 -0.888736 -0.398510 -0.553939 0.710508 0.000000 0.000000 0.000000 0.000000 0.000000 0.000000 0.000000 -17.212168 -3.712302 2.458078 -94.239025 74.525166 -135.020483 -2.508781 11.934844 0.008672 1.913601 10.701625 0.197309 -0.069402 -0.681719 -0.000000 0.000000 0.000000 0.000000 0.000000 0.000000 0.000000 
5.359181 16.436304 -2.614556 -148.959915 74.986659 -129.932531 5.949532 -0.722697 -2.724098 1.553433 -1.112684 -4.119352 -0.527210 -1.053415 -3.602902 -1.950511 -6.877332 -6.404402 1.609613 0.097327 0.367093 0.000000 0.000000 0.000000 8.842744 0.969860 0.612515 -8.925598 -38.424077 -56.954302 2.423176 -36.075796 -0.295850 26.050836 0.163690 -0.119930 -0.569492 0.666056 0.000000 0.000000 0.000000 0.000000 0.000000 0.000000 0.000000 -17.719007 -4.000209 -0.084321 -109.280238 78.175244 -157.894790 -4.883483 10.420948 -0.010366 1.534188 11.380446 0.177489 -0.144404 -0.738706 0.000000 0.000000 0.000000 0.000000 0.000000 0.000000 0.000000 
5.569195 16.532079 -2.749700 -150.046707 74.184564 -130.892318 6.555767 -0.631732 -2.526781 1.556444 -1.061321 -4.406774 -0.905082 -0.958056 -4.859349 -1.531039 -6.864273 -5.799084 1.707083 0.091714 0.550527 0.000000 0.000000 0.000000 9.188410 -0.527697 1.517306 -9.254291 -38.457623 -54.180040 2.005345 -33.416330 -0.263245 23.786915 0.973058 0.073737 -0.562266 0.624609 0.000000 0.000000 0.000000 0.000000 0.000000 0.000000 0.000000 -18.433740 -3.368641 -3.007479 -122.692451 82.713592 -176.594234 -6.168120 10.518125 -0.025095 1.176980 11.927476 0.150031 -0.185060 -0.732914 0.000000 0.000000 0.000000 0.000000 0.000000 0.000000 0.000000 
5.781946 16.631657 -2.885273 -151.275791 73.243912 -132.158356 6.992020 -0.542656 -2.642304 1.573063 -1.006998 -4.548856 -1.126188 -0.884626 -5.341537 -1.001571 -6.808654 -5.272447 1.805744 0.087906 0.704401 0.000000 0.000000 0.000000 9.559651 -2.207277 2.291893 -9.379994 -38.631188 -51.276906 1.634244 -30.653322 -0.222329 20.759304 1.470429 0.164997 -0.524437 0.584600 0.000000 0.000000 0.000000 0.000000 0.000000 0.000000 0.000000 -18.918353 -2.366180 -4.910229 -133.963144 86.214142 168.537059 -6.144166 11.276405 -0.029815 0.869465 12.305958 0.118290 -0.179619 -0.695518 0.000000 0.000000 0.000000 0.000000 0.000000 0.000000 0.000000 
5.997640 16.733497 -3.021600 -152.598147 72.243609 -133.596453 7.351440 -0.552035 -2.923940 1.632709 -1.049130 -4.574420 -1.202711 -0.923376 -5.271966 -0.472469 -6.710254 -4.939554 1.876841 0.086123 0.796352 0.000000 0.000000 0.000000 9.869067 -3.665123 2.898843 -9.391825 -38.833728 -48.110549 1.277327 -27.914194 -0.175545 17.164081 1.651591 0.170433 -0.459214 0.545213 0.000000 0.000000 0.000000 0.000000 0.000000 0.000000 0.000000 -19.002596 -1.472523 -5.758848 -143.335981 88.300676 156.272244 -5.482830 12.133782 -0.028109 0.608619 12.485403 0.086299 -0.152158 -0.654830 0.000000 0.000000 0.000000 0.000000 0.000000 0.000000 0.000000 
6.216363 16.835794 -3.159159 -153.959086 71.210483 -135.090305 7.694072 -0.647085 -3.273895 1.720275 -1.177766 -4.551236 -1.222234 -1.057022 -4.956364 0.029725 -6.570039 -4.744830 1.911772 0.084547 0.845887 0.000000 0.000000 0.000000 10.118350 -4.866806 3.378573 -9.391036 -39.061223 -44.506390 0.889818 -25.321016 -0.127138 13.229863 1.575041 0.126813 -0.375184 0.506003 0.000000 0.000000 0.000000 0.000000 0.000000 0.000000 0.000000 -18.755063 -0.800411 -5.962904 -151.577355 89.431713 145.630013 -4.651371 12.983003 -0.023897 0.400957 12.462970 0.058482 -0.120969 -0.619457 0.000000 0.000000 0.000000 0.000000 0.000000 0.000000 0.000000 
6.438201 16.936694 -3.298248 -155.302396 70.157975 -136.559153 8.045398 -0.791752 -3.659925 1.819926 -1.358756 -4.516126 -1.238903 -1.247332 -4.546851 0.499712 -6.393123 -4.630451 1.910856 0.081990 0.871822 0.000000 0.000000 0.000000 10.331516 -5.866200 3.756128 -9.465723 -39.317051 -40.285313 0.455634 -23.018394 -0.081609 9.191660 1.347755 0.072710 -0.282497 0.465993 0.000000 0.000000 0.000000 0.000000 0.000000 0.000000 0.000000 -18.269881 -0.325449 -5.796150 20.653228 89.994661 -44.044085 -3.840810 13.849633 -0.019174 0.262515 12.249822 0.038829 -0.093756 -0.589745 0.000000 0.000000 0.000000 0.000000 0.000000 0.000000 0.000000 
6.663042 17.034201 -3.439396 -156.569146 69.098435 -137.934432 8.418706 -0.957417 -4.072986 1.923153 -1.564761 -4.485474 -1.275859 -1.464583 -4.108781 0.931064 -6.188408 -4.564656 1.876965 0.078022 0.884379 0.000000 0.000000 0.000000 10.529796 -6.698189 4.041664 -9.679976 -39.588216 -35.288615 -0.017548 -21.166669 -0.042481 5.255789 1.096003 0.031997 -0.191073 0.423896 0.000000 0.000000 0.000000 0.000000 0.000000 0.000000 0.000000 -17.620225 -0.012342 -5.403817 12.942923 89.754795 -53.174726 -3.126995 14.772063 -0.014812 0.205295 11.861495 0.029222 -0.073242 -0.564645 0.000000 0.000000 0.000000 0.000000 0.000000 0.000000 0.000000 
6.890629 17.126425 -3.582942 -157.720086 68.047659 -139.171867 8.820565 -1.124532 -4.508619 2.025747 -1.776974 -4.466230 -1.340225 -1.688514 -3.672081 1.316957 -5.967827 -4.533761 1.814439 0.072714 0.888050 0.000000 0.000000 0.000000 10.726437 -7.370061 4.244189 -10.056328 -39.858723 -29.432206 -0.506313 -19.917805 -0.011648 1.568976 0.933539 0.008343 -0.108484 0.378623 0.000000 0.000000 0.000000 0.000000 0.000000 0.000000 0.000000 -16.863990 0.165295 -4.874007 5.068088 89.728137 -62.042476 -2.543011 15.778526 -0.011141 0.233359 11.323264 0.029639 -0.060124 -0.543469 0.000000 0.000000 0.000000 0.000000 0.000000 0.000000 0.000000 
7.120737 17.211722 -3.728674 -158.742680 67.024732 -140.256778 9.250159 -1.280509 -4.961012 2.125494 -1.982886 -4.460042 -1.430582 -1.905780 -3.250503 1.652932 -5.744175 -4.534323 1.729361 0.066470 0.884057 0.000000 0.000000 0.000000 10.926395 -7.870386 4.378058 -10.559888 -40.123661 -22.777692 -0.976987 -19.382820 0.010566 -1.797875 0.943967 -0.008971 -0.038318 0.329573 0.000000 0.000000 0.000000 0.000000 0.000000 0.000000 0.000000 -16.051460 0.228727 -4.271118 -3.070319 89.843744 -70.838661 -2.100720 16.894488 -0.008185 0.343547 10.660898 0.038264 -0.054173 -0.525840 0.000000 0.000000 0.000000 0.000000 0.000000 0.000000 0.000000 
7.352922 17.288641 -3.876347 -159.639050 66.044247 -141.193898 9.699720 -1.417775 -5.419212 2.219626 -2.174417 -4.465966 -1.546703 -2.107690 -2.855163 1.942896 -5.532973 -4.566027 1.626851 0.059672 0.872593 0.000000 0.000000 0.000000 11.126078 -8.185199 4.463723 -11.098196 -40.395935 -15.554022 -1.393965 -19.607564 0.024849 -4.843331 1.177692 -0.037759 0.019770 0.276779 -0.000000 0.000000 0.000000 0.000000 0.000000 0.000000 0.000000 -15.212785 0.194521 -3.654792 168.648557 89.931527 100.464254 -1.803901 18.110653 -0.005888 0.522829 9.938800 0.052283 -0.054816 -0.512251 0.000000 0.000000 0.000000 0.000000 0.000000 0.000000 0.000000 
